<!DOCTYPE svg PUBLIC "-//W3C//DTD SVG 1.1//EN" "http://www.w3.org/Graphics/SVG/1.1/DTD/svg11.dtd">
<svg version="1.1" id="Layer_1" xmlns="http://www.w3.org/2000/svg" xmlns:xlink="http://www.w3.org/1999/xlink" x="0px" y="0px"
	 width="338.274px" height="113.221px" viewBox="0 0 338.274 113.221" enable-background="new 0 0 338.274 113.221"
	 xml:space="preserve">
<g>
	<g>
		<defs>
			<polygon id="SVGID_1_" points="0,41.26 11.893,50.127 56.226,29.805 56.226,0 56.226,0 			"/>
		</defs>
		<clipPath id="SVGID_2_">
			<use xlink:href="#SVGID_1_"  overflow="visible"/>
		</clipPath>
		
			<linearGradient id="SVGID_3_" gradientUnits="userSpaceOnUse" x1="-202.7896" y1="126.5977" x2="-200.6522" y2="126.5977" gradientTransform="matrix(22.7624 -22.8487 22.7624 22.8487 1740.4019 -7478.9199)">
			<stop  offset="0" style="stop-color:#FAA21B"/>
			<stop  offset="1" style="stop-color:#F37021"/>
		</linearGradient>
		<polygon clip-path="url(#SVGID_2_)" fill="url(#SVGID_3_)" points="28.106,78.349 81.202,25.057 28.106,-28.226 -24.976,25.057 		
			"/>
	</g>
	<g>
		<defs>
			<polygon id="SVGID_4_" points="0,89.627 20.729,87.692 20.729,46.066 11.893,50.127 0,41.26 			"/>
		</defs>
		<clipPath id="SVGID_5_">
			<use xlink:href="#SVGID_4_"  overflow="visible"/>
		</clipPath>
		
			<linearGradient id="SVGID_6_" gradientUnits="userSpaceOnUse" x1="-229.147" y1="131.4131" x2="-227.0093" y2="131.4131" gradientTransform="matrix(9.6983 0 0 9.7351 2222.334 -1213.8706)">
			<stop  offset="0" style="stop-color:#FAA21B"/>
			<stop  offset="1" style="stop-color:#F37021"/>
		</linearGradient>
		<rect y="41.26" clip-path="url(#SVGID_5_)" fill="url(#SVGID_6_)" width="20.729" height="48.367"/>
	</g>
	<g>
		<defs>
			<polygon id="SVGID_7_" points="0,89.627 56.207,102.033 56.226,102.028 56.226,83.649 11.893,80.755 			"/>
		</defs>
		<clipPath id="SVGID_8_">
			<use xlink:href="#SVGID_7_"  overflow="visible"/>
		</clipPath>
		
			<linearGradient id="SVGID_9_" gradientUnits="userSpaceOnUse" x1="-207.3169" y1="124.9844" x2="-205.1796" y2="124.9844" gradientTransform="matrix(16.8081 -14.1571 14.1036 16.8718 1734.355 -4939.167)">
			<stop  offset="0" style="stop-color:#FAA21B"/>
			<stop  offset="1" style="stop-color:#F37021"/>
		</linearGradient>
		<polygon clip-path="url(#SVGID_8_)" fill="url(#SVGID_9_)" points="23.229,129.822 66.661,93.247 32.992,52.976 -10.436,89.552 		
			"/>
	</g>
	<g>
		<g opacity="0.1">
			<g>
				<defs>
					<rect id="SVGID_10_" y="41.247" width="20.729" height="40.084"/>
				</defs>
				<clipPath id="SVGID_11_">
					<use xlink:href="#SVGID_10_"  overflow="visible"/>
				</clipPath>
				<g clip-path="url(#SVGID_11_)">
					<defs>
						<rect id="SVGID_12_" y="41.247" width="20.729" height="40.084"/>
					</defs>
					<clipPath id="SVGID_13_">
						<use xlink:href="#SVGID_12_"  overflow="visible"/>
					</clipPath>
					<polygon clip-path="url(#SVGID_13_)" fill="#010101" points="0,41.26 11.889,80.761 20.729,81.332 20.729,46.088 
						11.889,50.136 					"/>
				</g>
			</g>
		</g>
		<g opacity="0.1">
			<g>
				<defs>
					<rect id="SVGID_14_" x="11.889" y="46.066" width="8.84" height="35.265"/>
				</defs>
				<clipPath id="SVGID_15_">
					<use xlink:href="#SVGID_14_"  overflow="visible"/>
				</clipPath>
				<g clip-path="url(#SVGID_15_)">
					<defs>
						<rect id="SVGID_16_" x="11.889" y="46.066" width="8.84" height="35.265"/>
					</defs>
					<clipPath id="SVGID_17_">
						<use xlink:href="#SVGID_16_"  overflow="visible"/>
					</clipPath>
					<polygon clip-path="url(#SVGID_17_)" fill="#010101" points="20.729,46.088 11.893,50.127 11.893,80.755 20.729,81.327 					
						"/>
				</g>
			</g>
		</g>
	</g>
	<g>
		<defs>
			<polygon id="SVGID_18_" points="56.226,102.033 72.442,91.566 72.442,36.098 56.226,0 			"/>
		</defs>
		<clipPath id="SVGID_19_">
			<use xlink:href="#SVGID_18_"  overflow="visible"/>
		</clipPath>
		
			<linearGradient id="SVGID_20_" gradientUnits="userSpaceOnUse" x1="-234.2051" y1="129.627" x2="-232.0669" y2="129.627" gradientTransform="matrix(7.5843 0 0 7.6131 1832.5035 -935.8461)">
			<stop  offset="0" style="stop-color:#FAA21B"/>
			<stop  offset="1" style="stop-color:#F37021"/>
		</linearGradient>
		<rect x="56.226" clip-path="url(#SVGID_19_)" fill="url(#SVGID_20_)" width="16.217" height="102.033"/>
	</g>
	<g>
		<path fill="#555759" d="M247.091,81.509l-0.021-0.049v-0.014h-0.016c-0.053-0.231-0.258-0.405-0.524-0.405
			c-0.077,0-0.152,0.013-0.224,0.04c-1.189,0.455-2.469,0.798-3.847,1.021c-1.64,0.259-3.17,0.387-4.587,0.387
			c-3.973,0-6.784-1.029-8.398-3.084c-1.605-2.056-2.408-4.966-2.408-8.72c0-3.518,0.879-6.361,2.573-8.541
			c1.716-2.175,4.301-3.25,7.77-3.25c1.637,0,3.111,0.165,4.418,0.486c1.087,0.241,2.156,0.584,3.103,0.914l0.014,0.004
			c0.049,0.009,0.088,0.009,0.146,0.009c0.284,0,0.498-0.2,0.539-0.455l2.14-8.304c0.009-0.045,0.045-0.099,0.045-0.174
			c0-0.219-0.151-0.424-0.353-0.508c-1.592-0.642-3.231-1.159-4.93-1.516c-1.842-0.382-3.843-0.579-6.054-0.579
			c-3.379,0-6.37,0.562-9.014,1.734c-2.612,1.146-4.862,2.728-6.699,4.703c-1.837,1.992-3.232,4.302-4.226,6.972
			c-0.969,2.661-1.454,5.5-1.454,8.505c0,3.13,0.41,6.014,1.234,8.684c0.82,2.675,2.1,4.979,3.87,6.927
			c1.756,1.961,4.007,3.49,6.739,4.636c2.724,1.128,5.982,1.698,9.767,1.698c2.483,0,4.742-0.213,6.79-0.633
			c1.846-0.392,3.441-0.815,4.716-1.332v-0.005c0.214-0.085,0.335-0.28,0.335-0.513c0-0.049,0-0.094-0.005-0.125L247.091,81.509z"/>
		<path fill="#555759" d="M171.953,50.417L171.953,50.417c-0.549-0.188-1.172-0.365-1.883-0.508
			c-0.896-0.178-1.783-0.338-2.666-0.468c-0.904-0.128-1.8-0.254-2.7-0.312c-0.887-0.084-1.658-0.133-2.282-0.133
			c-3.531,0-6.713,0.339-9.589,0.999c-2.693,0.615-5.055,1.261-7.07,1.97h-0.013c-0.214,0.085-0.356,0.264-0.356,0.504v38.505
			c0,0.303,0.231,0.54,0.539,0.54h10.654c0.307,0,0.557-0.237,0.557-0.54V59.688c0.513-0.151,1.289-0.307,2.323-0.432
			c1.016-0.143,1.895-0.197,2.635-0.197c1.64,0,3.169,0.139,4.578,0.424c1.172,0.24,2.202,0.468,3.107,0.7
			c0.067,0.014,0.114,0.026,0.183,0.026c0.268,0,0.513-0.205,0.543-0.486l1.756-8.648c0-0.062,0.01-0.098,0.01-0.164
			C172.277,50.702,172.139,50.506,171.953,50.417"/>
		<path fill="#555759" d="M329.67,60.237c-0.585-2.317-1.543-4.319-2.907-6.022c-1.381-1.68-3.232-2.981-5.572-3.909
			c-2.344-0.923-5.286-1.386-8.786-1.386c-3.48,0-6.788,0.241-9.939,0.758c-2.96,0.472-5.403,0.967-7.334,1.501l-0.017,0.005
			c-0.228,0.071-0.394,0.281-0.394,0.531v39.258c0,0.303,0.259,0.54,0.558,0.54h10.641c0.312,0,0.561-0.237,0.561-0.54l-0.009-0.04
			V59.381c0.745-0.116,1.57-0.218,2.542-0.281c0.931-0.089,1.814-0.125,2.665-0.125c2.746,0,4.605,0.789,5.612,2.38
			c0.994,1.578,1.502,4.275,1.502,8.073v21.53v0.014c0,0.303,0.232,0.54,0.549,0.54h10.646c0.308,0,0.543-0.237,0.543-0.54V68.007
			C330.53,65.164,330.267,62.564,329.67,60.237"/>
		<path fill="#555759" d="M134.48,40.334c-4.377-2.875-10.618-4.298-18.763-4.298h-15.86l0,0c-0.298,0.018-0.552,0.259-0.552,0.557
			v54.379c0,0.303,0.254,0.54,0.552,0.54h11.216c0.312,0,0.54-0.237,0.54-0.54V75.18v-2.011V62.626v-1.72V46.78
			c0.633-0.041,1.396-0.103,2.247-0.169c0.865-0.036,1.748-0.058,2.644-0.058c1.782,0,3.414,0.121,4.89,0.348
			c1.48,0.245,2.729,0.668,3.754,1.261c1.025,0.615,1.8,1.409,2.362,2.425c0.549,0.994,0.82,2.264,0.82,3.793
			c0,3.183-1.075,5.344-3.218,6.495c-2.073,1.119-5.126,1.694-9.139,1.751c0,0-0.049-0.013-0.08-0.013
			c-0.29,0-0.54,0.253-0.54,0.552v0.009l-0.004,9.438c0,0.29,0.254,0.557,0.544,0.557c8.126-0.036,14.113-1.515,18.518-4.413
			c4.413-2.934,6.629-7.681,6.629-14.287C141.038,47.925,138.844,43.2,134.48,40.334"/>
		<path fill="#555759" d="M285.325,54.794c-1.774-1.908-3.919-3.383-6.4-4.453c-2.521-1.056-5.275-1.569-8.27-1.569
			c-2.92,0-5.653,0.513-8.149,1.569c-2.505,1.07-4.653,2.545-6.472,4.453c-1.815,1.873-3.232,4.181-4.267,6.878
			c-1.025,2.68-1.529,5.688-1.529,8.951c0,3.282,0.495,6.267,1.498,8.974c0.985,2.737,2.39,5.042,4.19,6.967
			c1.769,1.958,3.913,3.415,6.414,4.48c1.788,0.749,3.735,1.238,5.816,1.453h0.045c0.304,0,0.554-0.246,0.554-0.553v-9.232
			c0-0.237-0.174-0.464-0.388-0.517h-0.022c-1.582-0.455-2.884-1.435-3.914-2.901c-1.461-2.153-2.202-5.038-2.202-8.671
			c0-3.655,0.741-6.508,2.202-8.594c1.488-2.1,3.539-3.134,6.224-3.134c2.692,0,4.752,1.035,6.187,3.134
			c1.458,2.086,2.18,4.939,2.18,8.594c0,3.633-0.722,6.518-2.18,8.671c-0.998,1.484-2.3,2.447-3.883,2.901
			c-0.272,0.036-0.454,0.28-0.454,0.531v9.219v0.014c0,0.293,0.228,0.548,0.549,0.548h0.049c2.161-0.201,4.153-0.683,5.973-1.462
			c2.491-1.065,4.618-2.523,6.402-4.48c1.805-1.925,3.169-4.23,4.113-6.967c0.937-2.707,1.428-5.692,1.428-8.974
			c0-3.263-0.5-6.271-1.507-8.951C288.516,58.976,287.123,56.667,285.325,54.794"/>
		<path fill="#555759" d="M192.599,48.772c-2.505,0-4.975,0.473-7.372,1.432c-2.39,0.948-4.494,2.331-6.349,4.176
			c-1.836,1.841-3.325,4.172-4.467,6.937c-1.122,2.772-1.676,5.986-1.676,9.699c0,3.059,0.428,5.906,1.311,8.541
			c0.848,2.639,2.172,4.939,4.004,6.856c1.818,1.921,4.102,3.451,6.852,4.56c2.772,1.093,6.008,1.658,9.775,1.658
			c1.448,0,2.938-0.084,4.404-0.24c1.462-0.151,2.849-0.352,4.124-0.597c1.288-0.228,2.46-0.509,3.517-0.821
			c0.851-0.275,1.577-0.526,2.149-0.771l0.039-0.014c0.165-0.111,0.268-0.276,0.268-0.504v-0.071v-0.03h-0.009l-1.378-8.457
			c-0.049-0.268-0.271-0.459-0.535-0.459c-0.103,0-0.178,0.004-0.254,0.04c-1.194,0.459-2.666,0.852-4.417,1.199
			c-2.078,0.397-4.19,0.583-6.344,0.583c-3.374,0-6.05-0.713-8.068-2.113c-1.966-1.431-3.107-3.352-3.361-5.759l-0.049-0.045
			c-0.135-1.355-0.236-2.764-0.236-3.535c0-0.959,0.129-2.911,0.259-4.538l0.013-0.014c0.151-1.007,0.42-1.975,0.75-2.955
			c0.342-0.99,0.828-1.824,1.453-2.563c0.623-0.759,1.417-1.355,2.366-1.806c0.955-0.433,2.096-0.651,3.393-0.651
			c1.374,0,2.519,0.245,3.44,0.687c0.924,0.49,1.686,1.101,2.284,1.845c0.601,0.731,1.038,1.583,1.346,2.51
			c0.271,0.962,0.45,1.926,0.498,2.946h-11.268c-0.317,0-0.565,0.254-0.565,0.557v0.027v6.927v0.008
			c0,0.309,0.257,0.553,0.565,0.553h21.892c0.299,0,0.543-0.245,0.543-0.562h-0.009c0.071-0.491,0.076-1.017,0.138-1.592
			c0.046-0.847,0.072-1.596,0.072-2.282c0-7.021-1.703-12.339-5.14-15.95C203.152,50.582,198.498,48.772,192.599,48.772"/>
		<path fill="#555759" d="M327.134,46.869v-0.014c0-3.049,2.46-5.595,5.59-5.595c3.133,0,5.55,2.501,5.55,5.568v0.027
			c0,3.049-2.466,5.577-5.591,5.577C329.564,52.432,327.134,49.922,327.134,46.869 M337.694,46.855v-0.027
			c0-2.79-2.135-5.015-4.97-5.015c-2.854,0-5.02,2.269-5.02,5.042v0.014c0,2.772,2.144,5.042,4.979,5.042
			C335.528,51.911,337.694,49.605,337.694,46.855 M330.446,43.757h2.607c0.762,0,1.364,0.245,1.773,0.628
			c0.304,0.303,0.47,0.722,0.47,1.222v0.036c0,0.94-0.545,1.533-1.338,1.747l1.564,2.215h-1.333l-1.432-2.001h-0.018h-1.172v2.001
			h-1.123V43.757z M333.013,46.61c0.731,0,1.164-0.343,1.164-0.896v-0.049c0-0.593-0.433-0.909-1.164-0.909h-1.444v1.854H333.013z"
			/>
		<polygon fill="#555759" points="99.269,102.336 107.177,102.336 107.177,104.017 101.132,104.017 101.132,106.794 
			106.495,106.794 106.495,108.466 101.132,108.466 101.132,111.354 107.239,111.354 107.239,113.044 99.269,113.044 		"/>
		<polygon fill="#555759" points="111.26,102.336 113.008,102.336 118.7,109.736 118.7,102.336 120.545,102.336 120.545,113.044 
			118.985,113.044 113.097,105.407 113.097,113.044 111.26,113.044 		"/>
		<path fill="#555759" d="M124.588,107.725v-0.048c0-2.982,2.283-5.532,5.51-5.532c1.841,0,2.987,0.498,4.106,1.443l-1.199,1.437
			c-0.816-0.7-1.645-1.159-3-1.159c-1.953,0-3.441,1.733-3.441,3.793v0.019c0,2.21,1.449,3.823,3.628,3.823
			c0.99,0,1.903-0.316,2.563-0.797v-1.992h-2.733v-1.646h4.542v4.49c-1.035,0.898-2.55,1.665-4.436,1.665
			C126.795,113.221,124.588,110.832,124.588,107.725"/>
		<polygon fill="#555759" points="138.787,102.336 146.694,102.336 146.694,104.017 140.671,104.017 140.671,106.794 
			146.017,106.794 146.017,108.466 140.671,108.466 140.671,111.354 146.77,111.354 146.77,113.044 138.787,113.044 		"/>
		<polygon fill="#555759" points="150.791,102.336 152.516,102.336 158.231,109.736 158.231,102.336 160.076,102.336 
			160.076,113.044 158.494,113.044 152.614,105.407 152.614,113.044 150.791,113.044 		"/>
		<polygon fill="#555759" points="164.596,102.336 166.478,102.336 166.478,106.767 171.559,106.767 171.559,102.336 
			173.436,102.336 173.436,113.044 171.559,113.044 171.559,108.528 166.478,108.528 166.478,113.044 164.596,113.044 		"/>
		<path fill="#555759" d="M181.741,102.246h1.726l4.703,10.798h-1.984l-1.092-2.595h-5.033l-1.11,2.595h-1.907L181.741,102.246z
			 M184.407,108.791l-1.837-4.289l-1.822,4.289H184.407z"/>
		<path fill="#555759" d="M191.77,102.336h4.756c1.334,0,2.386,0.375,3.062,1.056c0.59,0.594,0.893,1.387,0.893,2.318v0.04
			c0,1.757-1.044,2.809-2.545,3.245l2.888,4.049h-2.21l-2.627-3.74h-0.034h-2.296v3.74h-1.887V102.336z M196.385,107.646
			c1.35,0,2.201-0.723,2.201-1.797v-0.031c0-1.145-0.829-1.771-2.215-1.771h-2.715v3.599H196.385z"/>
		<rect x="204.675" y="102.336" fill="#555759" width="1.859" height="10.708"/>
		<path fill="#555759" d="M214.959,102.246h1.729l4.689,10.798H219.4l-1.078-2.595h-5.043l-1.091,2.595h-1.913L214.959,102.246z
			 M217.634,108.791l-1.832-4.289l-1.837,4.289H217.634z"/>
	</g>
</g>
</svg>
